<?xml version="1.0" standalone="yes"?>
<svg xmlns="http://www.w3.org/2000/svg" width="2200" height="641">
<path style="fill:#262527; stroke:none;" d="M0 0L0 641L2200 641L2200 0L0 0z"/>
<path style="fill:#ddded8; stroke:none;" d="M192 421C188.267 428.307 186.177 435.612 191.8 442.715C194.71 446.389 199.579 449.153 200.667 454C201.83 459.177 198.234 464.166 197.043 469C194.599 478.918 196.469 490.32 204.185 497.535C221.695 513.91 246.915 505.158 268 508.299C290.824 511.7 304.638 531.482 313.154 551C316.724 559.184 319.813 566.941 320 576L313 576C319.224 582.429 330.866 579 339 579C336.366 563.445 337 547.836 337 532L337 465L337 438C337 433.794 337.829 429.482 334 427L334 541C334 550.819 335.002 561.24 333.891 570.995C333.395 575.356 329.149 578.828 326.179 573.851C320.933 565.062 325.999 550.576 326 541L326 455L326 428C326 423.794 326.829 419.482 323 417C320.84 434.092 322 451.773 322 469L322 557C317.302 550.343 316.099 542.303 312.677 535C307.566 524.092 298.29 515.023 288 509.012C275.831 501.903 261.831 500.676 248 501.015C241.458 501.175 235.564 502.43 229 501.196C218.66 499.251 207.513 495.029 203.789 484C199.848 472.328 209.807 463.403 207.659 452C206.197 444.241 192.261 438.241 196.194 430.005C201.178 419.571 214.006 428.703 219 421C210.484 420.93 201.25 419.345 194.004 414.612C190.956 412.621 187.59 409.979 187.557 405.999C187.485 397.211 196.251 388.717 189.566 380.043C182.595 370.997 163.298 372.164 161.243 359C160.104 351.704 165.817 344.763 169.424 339C177.228 326.535 187.216 313.603 190.486 299C194.461 281.253 185.445 265.546 185.015 248C184.15 212.688 194.769 175.967 213.425 146C242.26 99.6832 296.995 68.3338 351 63.1697C362.775 62.0438 374.223 62.0482 386 63.1697C393.975 63.9292 403.154 65.8462 411 64L411 62C396.603 55.9233 378.325 57 363 57C286.488 57 210.991 110.372 188.569 184C182.431 204.157 177.64 226.826 179.09 248C180.106 262.846 186.003 277.104 184.91 292C183.745 307.873 171.823 323.176 163.333 336C158.439 343.39 152.274 352.642 154.533 362C156.552 370.361 164.622 374.488 172 377.316C176.623 379.088 183.785 381.658 185.292 387.015C186.359 390.806 183.329 395.571 182.004 399C179.244 406.143 180.22 412.414 186.09 417.772C187.912 419.435 189.719 420.224 192 421M576 198C570.569 203.377 568.776 211.824 564.1 218C553.647 231.806 538.27 241.248 522 246.667C510.999 250.33 499.423 250.736 488 249.13C452.341 244.118 419.227 213.219 411.364 178C400.555 129.585 429.629 67.1428 485 66L485 64C475.981 63.6129 467.085 62.4639 458 63.0895C443.754 64.0705 428.082 69.5694 416 77.0656C398.944 87.648 387.34 102.108 377.062 119C367.774 134.265 364 153.298 364 171C364 181.33 364.002 191.947 366.784 202C378.47 244.225 412.468 274.753 455 283.192C496.514 291.43 541.978 268.929 563.396 233C569.853 222.168 575.451 210.786 576 198M306 579C305.129 567.969 305 557.089 305 546L301 546C301.21 556.171 301.437 565.815 301 576C292.925 575.389 293 569.81 293 563C292.999 552.28 294 541.716 294 531L290 531L290 560C290 563.889 290.898 569.221 289.258 572.852C287.88 575.902 284.901 575.905 282 576L282 523L279 523L278 575L270 575L270 538C270 531.463 270.862 524.299 269 518L267 518C265.488 523.128 266.857 527.775 266.985 533C267.206 541.989 267 551.008 267 560C267 568.081 268.034 575.45 258 576L258 517L254 517L254 575L246 575L246 518L242 518L242 555C242 559.884 243.379 567.311 241.397 571.852C239.921 575.232 236.105 574.963 233 575L233 517L230 517L230 555C230 559.884 231.379 567.311 229.397 571.852C227.921 575.232 224.105 574.963 221 575L221 517L217 517L217 560C217 567.502 218.404 574.694 209 575L209 512L205 512L205 559C205 566.649 206.76 574.682 197 575L196 501L193 501L193 557C193 565.783 195.234 574.867 184 575L184 479C184 471.671 184.128 464.328 183.995 457C183.928 453.286 183.847 450.125 180 449L181 575L172 575C172 532.359 171 489.702 171 447C171 437.723 170.456 428.256 171.09 419C171.764 409.157 173.843 397.618 171 388L169 388C167.054 394.584 168 402.166 168 409L168 448L168 575L159 575L159 385L156 385L156 575C153.575 574.971 150.481 575.282 148.603 573.397C146.351 571.135 147.001 566.891 147 564L147 539L147 460C147 448.275 149.613 432.932 145 422C149.885 419.319 152.212 414.642 150.486 409.015C148.867 403.734 142.997 400.485 138.214 404.033C127.647 411.871 140.826 417.952 142.682 425.04C144.179 430.758 143 438.109 143 444L143 575L135 575C133.937 550.244 135 525.746 135 501C135 473.991 134 446.931 134 420L131 420L131 574C125.146 573.096 121.386 568.849 120.329 563C118.165 551.015 120 537.175 120 525L120 367L120 150L120 98C120 90.314 118.546 81.9204 125.094 76.3943C129.462 72.708 134.627 73.0004 140 73L165 73L271 73L271 69C258.092 66.6035 244.101 68 231 68L158 68C145.849 68 128.598 62.9306 119.225 73.1049C112.311 80.6083 115 94.5942 115 104L115 184L115 473L115 545C115 554.636 113.244 567.199 120.214 574.956C125.228 580.537 131.105 580 138 580L169 580C214.657 580 260.429 579.005 306 579M502 73L573 73C582.914 73 593.882 70.9608 600.566 80.0046C605.666 86.9047 603 100.791 603 109L603 181L603 462L603 542C603 552.9 605.812 565.751 596 573C598.24 563.593 596 553.585 596 544C596 524.024 596.097 503.97 596.001 484C595.713 424.275 597 364.674 597 305C591.279 306.673 593 315.169 593 320L593 368L593 507L593 550C593 557.864 592.066 566.337 594 574C590.961 574.724 588.122 574.974 585 575C585 500.538 586 426.357 586 352C586 347.783 585.428 343.165 586.108 339C586.491 336.656 587.829 334.432 587.555 332C587.227 329.093 584.97 326.831 584.313 324C583.004 318.354 583.287 309.727 584.147 304C584.762 299.91 588.202 297.088 588.732 293C589.32 288.455 586.613 283.535 581.995 282.453C576.443 281.151 571.626 286.66 572.388 292C573.077 296.821 576.529 299.308 581 300C581 307.562 582.608 316.633 581.513 324C581.022 327.305 577.634 329.617 577.634 332.985C577.634 337.194 581.905 340.23 581.995 345.001C583.038 400.289 582 455.7 582 511L582 559C582 566.649 583.76 574.682 574 575L575 424L571 424L571 540L571 563C571 565.923 571.68 570.11 569.972 572.682C568.404 575.044 565.5 574.919 563 575L563 426L559 426L559 575C556.499 574.919 553.596 575.044 552.028 572.682C550.464 570.326 551.001 566.675 551 564L551 543L551 436L548 436L548 575L540 575L540 486L537 486L536 575C533.499 574.919 530.596 575.044 529.028 572.682C527.32 570.11 528 565.923 528 563L528 542L528 433L524 433C524 469.386 525 505.611 525 542L525 563C525 565.923 525.68 570.11 523.972 572.682C522.404 575.044 519.5 574.919 517 575C517 541.276 516 507.716 516 474C516 458.055 514.085 440.7 517 425L513 425L513 541C513 550.305 513.386 559.703 512.981 568.999C512.856 571.872 511.409 577.229 507.313 574.914C504.201 573.154 505.001 567.953 505 565L505 537L505 460C505 448.459 507.275 434.08 504 423L502 423C500.308 428.725 501 435.06 501 441L501 473L501 578C510.663 578.199 520.346 579.538 530 579.961C544.941 580.615 560.044 580 575 580C584.637 580 596.674 582.395 603.467 573.957C610.613 565.08 608 550.635 608 540L608 457L608 189L608 112L608 91C608 87.0022 608.438 82.7448 606.772 79C601.917 68.0906 592.309 68 582 68L528 68C521.065 68 503.847 64.5351 502 73M311 103C306.975 95.6025 298.138 93.5972 292.703 101.094C290.898 103.584 289.885 106.941 290.458 109.999C290.921 112.474 293.042 114.849 292.018 117.424C290.618 120.946 286.704 124.163 284.271 127C277.251 135.186 269.839 144.774 261 151C256.975 143.483 247.794 141.711 242.6 135.471C240.904 133.435 240.624 130.491 240 128C255.883 123.425 269.183 112.912 282 103.011C286.448 99.5745 292.933 96.7009 296 92C284.063 94.7313 274.256 105.609 264 111.935C256.449 116.593 247.986 121.001 240 124.841C237.549 126.02 234.525 125.651 232.228 127.038C227.467 129.914 228.926 135.753 233 138C230.616 148.011 234.349 159.124 231.682 168.907C230.659 172.659 226.657 174.355 224.228 177.093C221.66 179.989 220.905 183.204 221.044 187C221.163 190.245 221.925 193.249 224.278 195.61C226.51 197.851 229.761 198.789 230.682 202.105C232.086 207.156 231 213.78 231 219C231 228.054 231.999 236.974 232 246C228.556 246.826 226.723 247.887 225 251C221.301 248.394 218.306 245.168 215 242.09C212.131 239.418 208.723 237.114 206.318 233.985C195.482 219.887 219.516 207.84 222 195C214.72 201.804 204.329 212.088 202 222C196.373 222.136 186.725 226.884 193.434 233.424C196.134 236.055 199.903 235.123 203 236.83C208.846 240.053 215.335 246.538 219.682 251.576C225.238 258.014 220.936 266.766 232 269L233 303L235 303C235.878 296.05 236.498 289.019 235.83 282C235.499 278.517 233.866 273.613 236.028 270.423C240.384 263.996 254.261 274.713 254.647 280.039C254.881 283.27 252.356 286.625 250.86 289.285C248.091 294.211 244.765 299.667 243 305C238.265 304.121 232.568 302.978 228.105 305.457C221.131 309.331 221.382 321.595 227.214 326.347C230.633 329.134 235.891 329.64 240 328.278C242.807 327.347 244.922 325.439 248 326.562C252.154 328.079 256.313 331.572 260 334.003C266.943 338.58 273.993 342.96 281 347.435C285.587 350.365 289.615 353.764 295 355C293.409 349.827 288.268 347.532 284 344.587C276.546 339.443 268.723 334.552 261 329.811C255.616 326.506 249.817 323.912 247 318L275 318C279.39 318 284.689 317.205 288.961 318.318C292.384 319.209 297.996 323.924 299.397 327.209C302.066 333.471 300 344.231 300 351C305.896 347.178 303 331.499 303 325C308.543 325.902 309.913 330.365 312.248 335C315.063 340.59 318.888 345.765 320 352C316.152 352.338 312.754 354.199 309 354.608C306.187 354.914 303.773 353.2 301.005 353.288C296.346 353.435 293.624 358.787 296.029 362.772C300.712 370.534 307.806 362.949 308 357C311.602 356.639 316.436 353.714 319.907 354.637C322.417 355.305 323.898 357.928 325.123 360.002C328.208 365.219 330.445 370.869 333.698 376C334.965 378 337.243 380.452 337.038 383C336.703 387.164 331.281 390.352 329.457 394C324.808 403.299 331.066 414.035 340 417.772C351.334 422.512 364.575 413.228 363.892 401C363.372 391.691 357.248 386.044 349 383C355.141 364.128 363.091 344.699 366 325C368.985 325.88 371.957 326.381 375 325.259C378.096 324.118 380.443 321.117 384 321.669C393.784 323.186 401.822 331.106 412 332C412.24 335.045 413.497 338.874 411.958 341.714C409.415 346.404 403.076 349.758 399 353.004C390.794 359.537 383.454 367.329 375 373.509C369.174 377.768 362.486 380.747 360 388C364.992 385.714 368.765 381.75 373 378.31C380.955 371.85 388.982 365.397 397 359.004C402.836 354.35 410.568 349.779 414 343C417.847 345.292 423.294 346.698 426.61 349.563C433.278 355.325 437.482 367.39 441.85 375C443.614 378.072 446.553 381.495 447.307 385C448.292 389.579 444.343 394.002 445.229 399C446.224 404.611 451.369 408.399 457 407.796C463.526 407.097 468.818 400.604 467.707 394C467.253 391.304 465.03 388.811 465.448 386C466.163 381.182 472.381 375.59 475.439 372.004C480.372 366.219 485.715 360.752 490.718 355C494.083 351.131 497.564 346.235 502 343.527C508.222 339.729 515.54 345.603 521.347 338.671C524.267 335.185 524.519 330.136 523 326C522.161 323.715 520.427 321.57 520.993 319C521.723 315.685 525.061 312.706 526.964 310C531.799 303.125 536.916 296.256 541.153 289C542.798 286.183 546.967 281.644 546.169 278.149C544.897 272.577 535.102 278.507 542 283C537.417 291.045 531.55 298.354 526.344 306C523.997 309.447 521.755 314.774 518.391 317.307C516.224 318.939 513.483 317.987 511 318.144C507.305 318.376 503.8 320.165 501.514 323.105C497.31 328.512 501.299 333.489 499.598 339C498.76 341.715 496.215 343.893 494.427 346C489.967 351.258 485.919 358.058 479 360C477.011 369.862 466.586 375.742 463 385C458.431 384.152 454.549 383.917 450 385C447.38 375.923 441.264 367.178 436.573 359C434.747 355.818 430.97 351.751 430.674 348C430.416 344.747 433.421 341.985 434.347 339C435.343 335.791 434.509 332.187 436.179 329.17C439.878 322.488 449.276 317.476 455 312.572C458.938 309.198 465.436 299.487 470.999 299.485C474.737 299.483 477.719 304.127 480.17 306.41C485.719 311.577 491.881 318.242 499 321C493.501 313.355 484.819 307.531 478 301.019C475.644 298.769 472.663 295.595 469.039 296.662C465.431 297.725 462.702 302.159 459.985 304.576C452.604 311.142 444.755 319.921 436 324.627C432.344 326.593 429.617 323.809 426 323.231C419.71 322.227 414.82 325.692 412 331C403.497 326.161 391.754 324.369 384.148 318.301C380.752 315.591 381.642 311.451 379.258 308.224C377.324 305.607 374.017 304.667 372.228 301.867C370.343 298.92 369.623 295.191 368.219 292C364.117 282.675 360.365 273.211 356 264C360.84 260.934 362.308 254.449 360.401 249C359.27 245.766 356.686 243.504 356.148 240C354.829 231.406 356.929 222.576 357 214C353.094 216.542 354.771 219.887 354.871 224C355.023 230.255 354 236.677 354 243C351.225 243.41 348.673 244.149 346 245C340.696 232.391 330.342 220.768 322.13 210C318.039 204.634 313.877 197.453 308 194C309.783 190.997 311.317 188.44 312 185C319.718 185 327.33 185.917 335 185.996C341.852 186.067 347.327 184.919 354 187C356.152 177.492 346.242 167.294 340.884 160C338.774 157.127 334.635 152.856 335.008 149C335.376 145.193 339.589 141.644 342 139C346.972 133.548 351.328 127.435 356.439 122.133C358.947 119.531 363.266 118.18 364.953 114.893C367.818 109.31 359.234 104.292 357 111L313 111C312.89 108.558 312.572 106.377 312 104C327.603 101.219 342.649 89.7827 357 83.3094C361.761 81.162 367.763 83.3168 371.852 80.9676C375.408 78.9243 375.747 73.3282 372.566 70.7577C366.626 65.9573 362.156 76.8101 357.981 79.2006C342.831 87.875 326.321 94.504 311 103M328 81C333.693 83.3167 343.282 78.8121 349 77C341.758 73.9612 334.605 78.2535 328 81M386 76C384.805 78.1661 384.309 79.5529 384 82C388.3 81.2801 389.103 79.1294 386 76M321 87C323.687 85.6759 324.676 84.6866 326 82C322.201 82.2952 320.384 82.9753 321 87M470.317 84.1613C467.135 85.6818 469.786 90.5789 472.757 88.8395C475.616 87.1653 473.329 82.7225 470.317 84.1613M130 85L130 88L219 88L239 88C242.787 87.9922 245.829 88.3486 248 85L130 85M507 85L507 88L597 88L597 85L507 85M310 90C313.207 89.5031 314.444 88.8495 316 86C313.056 86.7103 311.608 87.4272 310 90M492 104C493.046 102.436 494.59 100.727 495.307 98.9753C499.069 89.7873 480.399 90.027 485.533 99.6952C485.988 100.552 486.879 101.351 487.61 101.968C489.023 103.16 490.274 103.512 492 104M366 92L366 97L368 97L368 92L366 92M346 96L346 100L349 100L349 96L346 96M453.333 97.1759C450.21 98.7361 452.712 103.682 455.852 102.654C459.803 101.361 456.845 95.4208 453.333 97.1759M130 98L130 101C135.372 100.996 140.653 99.9511 146 100.018C161.613 100.215 177.381 101.975 193 102C205.03 102.019 216.945 101 229 101L229 98L130 98M526 101L596 100L596 98L544 98C538.636 98 529.236 96.0079 526 101z"/>
<path style="fill:#262527; stroke:none;" d="M300.019 101.801C290.549 104.726 297.349 118.04 305.852 114.396C312.664 111.476 306.516 99.7944 300.019 101.801z"/>
<path style="fill:#ddded8; stroke:none;" d="M151 116C155.966 113.394 156.011 109.85 154 105C147.633 106.848 148.459 110.91 151 116M305 111L304 105C298.291 106.735 299.528 110.573 305 111M441 115C443.249 113.846 443.846 113.249 445 111C441.453 110.453 440.453 111.453 441 115M592 110C592 111.797 592.014 111.521 593 113C575.006 112.228 557.06 112 539 112L539 115C553.33 113.869 567.771 116.393 582 114.714C586.93 114.133 594.187 115.464 596 110L592 110M270 114C275.601 115.723 283.164 113.461 289 113L289 111C282.596 111.004 275.838 111.187 270 114M517.005 111.801C507.463 114.67 512.255 129.213 520.906 126.087C529.068 123.138 525.311 109.303 517.005 111.801M161 113L161 116L218 116L218 113L161 113M129 114L129 116C134.437 116 139.612 115.681 145 115C140.276 113.018 134.09 114 129 114z"/>
<path style="fill:#262527; stroke:none;" d="M310 116C314.507 126.714 323.332 135.781 329 146C334.081 144.574 336.901 140.884 340.282 137C346.144 130.265 354.988 123.322 356 114L327 114C321.128 114 315.394 113.404 310 116z"/>
<path style="fill:#ddded8; stroke:none;" d="M475 144C476.299 152.826 479.683 161.554 482.485 170C486.208 181.224 489.443 192.055 494 203C476.997 211.834 491.769 240.561 508.996 230.633C514.647 227.376 518.728 220.639 517.467 214C516.855 210.782 514.396 207.338 515.438 204C516.378 200.99 519.261 198.4 521.197 196C525.542 190.613 529.769 182.837 535.155 178.532C538.049 176.219 541.839 179.486 545 179.867C552.351 180.751 558.505 176.983 561.03 170C567.765 151.377 543.547 142.389 533 157C524.261 149.819 513.071 145.282 503 140.247C499.259 138.376 494.493 136.799 491.318 134.034C488.285 131.392 489.47 127.445 488.297 124.001C485.91 116.99 478.951 114.129 472 115.214C454.663 117.92 459.723 142.341 475 144z"/>
<path style="fill:#262527; stroke:none;" d="M295 118C288.247 127.401 280.276 135.293 272.718 144C270.569 146.476 265.952 150.135 267.256 153.907C268.434 157.314 273.19 159.403 276 161.218C281.542 164.795 287.124 168.611 291 174C280.726 168.698 272.282 159.571 261 156C254.981 164.545 242.958 170.299 245 182L274 182C278.087 182 283.969 183.054 287.787 181.397C290.46 180.236 291.493 177.234 293.389 175.223C295.211 173.29 298.262 172.227 299.397 169.726C301.303 165.525 300 158.538 300 154L300 119L295 118z"/>
<path style="fill:#ddded8; stroke:none;" d="M276 119L277 124L279 124C279.562 122.2 279.824 120.878 280 119L276 119z"/>
<path style="fill:#262527; stroke:none;" d="M303 120L303 153C303 157.848 301.95 164.113 303.318 168.79C304.116 171.521 306.756 172.62 308.61 174.529C310.735 176.714 311.473 179.096 312 182C324.511 182 338.8 183.905 351 181C349.133 173.123 342.131 166.43 337.424 160.001C335.783 157.76 333.511 153.559 330.155 154.06C327.657 154.433 325.602 157.35 323.961 159.015C319.159 163.886 314.782 169.117 310 174C313.123 164.795 325.073 159.299 327.114 150C327.933 146.271 324.273 142.808 322.347 140C317.714 133.244 312.506 126.411 309 119L303 120M472.004 119.657C459.814 123.36 465.928 142.162 477.985 138.346C490.08 134.519 483.841 116.06 472.004 119.657z"/>
<path style="fill:#ddded8; stroke:none;" d="M562 120C561.665 122.246 561.61 123.779 562 126C562.951 123.715 562.951 122.285 562 120M335 124C336.081 126.121 336.879 126.919 339 128C338.146 125.475 337.492 124.97 335 124M433 124C433.482 126.364 433.636 126.518 436 127C436 125.203 435.986 125.479 435 124L433 124M129 128L129 130L205 131L205 128C187.75 128 170.221 128.915 153 127.957C150.34 127.809 147.8 126.701 145.17 126.634C139.991 126.504 134.386 128 129 128M472.321 127.086C468.848 129.187 472.191 135.079 475.707 132.914C479.233 130.742 475.943 124.896 472.321 127.086M564 127C570.103 131.695 580.675 130.015 588 130C591.787 129.992 594.829 130.348 597 127L564 127M422 130L422 132L423 133L425 133L426 129L422 130M266.333 130.667C266.278 130.722 266.222 131.778 266.667 131.333C266.722 131.278 266.778 130.222 266.333 130.667M535 139C536.778 131.199 528.23 135.243 535 139M352 136L353 141L355 141L356 140C354.846 137.751 354.249 137.154 352 136z"/>
<path style="fill:#262527; stroke:none;" d="M487 136C484.11 139.596 480.933 141.668 477 144C481.871 157.53 485.806 171.377 490.421 185C491.776 188.997 492.248 197.271 495.728 199.972C497.674 201.483 500.717 200.883 503 201.188C506.137 201.608 509.021 203.009 512 204C517.485 194.373 526.058 182.581 535 176C534.041 172.637 532.381 169.443 531.719 166C531.255 163.584 531.908 160.555 530.308 158.498C527.977 155.502 522.29 153.685 519 151.861C509.058 146.351 497.803 139.418 487 136M235 173L243 174C248.163 166.449 256.676 160.58 260 152C255.453 148.898 251.211 145.546 247 142.005C244.799 140.154 242.195 137.577 239.059 137.851C234.851 138.219 235.022 142.854 235.001 146C234.939 154.999 235 164.001 235 173M374.667 138.333C374.222 138.778 375.278 138.722 375.333 138.667C375.778 138.222 374.722 138.278 374.667 138.333M378 138L379 139L378 138z"/>
<path style="fill:#ddded8; stroke:none;" d="M314 139L314 141C315.635 140.455 315.455 140.635 316 139L314 139M571 141L571 143L597 143L597 140L571 141M129 141L129 144C145.674 143.954 162.272 144 179 144C184.215 144 192.851 145.858 196 141L129 141M445.603 142.157C443.87 143.315 445.664 146.001 447.397 144.843C449.13 143.686 447.336 140.999 445.603 142.157M313 145L313 147L315 147L315 145L313 145M437 146L437 148L441 149L441 145L437 146M285.564 147.171C283.573 148.471 285.241 152.261 287.436 150.829C289.427 149.529 287.759 145.739 285.564 147.171z"/>
<path style="fill:#262527; stroke:none;" d="M372 147C370.17 151.336 370.003 155.341 370 160C371.314 158.388 372.187 156.915 373 155L371 156C371.905 153.166 372.478 151.574 375 150C374.028 148.73 373.27 147.972 372 147M376 149L377 150L376 149z"/>
<path style="fill:#ddded8; stroke:none;" d="M128 154C133.235 156.201 140.344 155.998 146 156L174 156C178.904 156 186.041 157.564 189 153L128 154M243 153C243.418 155.689 243.717 156.554 246 158L246 153L243 153z"/>
<path style="fill:#262527; stroke:none;" d="M544.001 153.657C530.215 157.807 535.594 178.858 549 175.307C563.33 171.511 557.628 149.554 544.001 153.657z"/>
<path style="fill:#ddded8; stroke:none;" d="M577 153L577 156L596 155L596 153L577 153z"/>
<path style="fill:#262527; stroke:none;" d="M380 154L381 155L380 154z"/>
<path style="fill:#ddded8; stroke:none;" d="M424 158C426.458 158.646 427.542 158.646 430 158C428.025 154.528 425.975 154.528 424 158z"/>
<path style="fill:#262527; stroke:none;" d="M375 156L376 157L375 156z"/>
<path style="fill:#ddded8; stroke:none;" d="M351 157L351 161C353.035 159.774 353.326 159.297 354 157L351 157M462 158C463.127 160.841 463.987 161.492 467 162C466.419 158.51 465.56 157.453 462 158z"/>
<path style="fill:#262527; stroke:none;" d="M372.667 158.333C372.222 158.778 373.278 158.722 373.333 158.667C373.778 158.222 372.722 158.278 372.667 158.333M376 158L377 159L376 158M382 159L383 160L382 159M374.333 160.667C374.278 160.722 374.222 161.778 374.667 161.333C374.722 161.278 374.778 160.222 374.333 160.667z"/>
<path style="fill:#ddded8; stroke:none;" d="M545.143 161.176C540.428 163.148 542.581 171.122 547.776 169.199C552.622 167.406 549.984 159.152 545.143 161.176z"/>
<path style="fill:#262527; stroke:none;" d="M369 162C369 180.529 369.328 197.551 376.452 215C390.571 249.58 422.155 273.895 459 279C468 280.247 478.082 281.123 487 279L487 277L478 275C477.316 276.58 477.195 276.777 476 278L477 276C475.125 276.547 473.745 277.11 472 278L474 273L469 277L470 273L467 275C467.683 273.42 467.805 273.223 469 272C466.642 271.379 465.16 272.94 463 274C463.545 272.365 463.365 272.545 465 272C463.341 271.594 462.758 271.691 461 272C458.703 267.895 455.29 267.901 451 269L452 266L446 269L448 265C445.463 264.345 443.953 263.724 442 262L439 263C439.326 259.193 438.39 257.722 435 256L436 259C433.768 258.637 432.232 258.637 430 259C429.218 257.416 428.13 256.4 427 255C424.05 254.723 423.004 254.177 421 252C423.681 253.378 425.069 253.713 428 253C426.341 252.594 425.758 252.691 424 253C424.545 251.365 424.365 251.545 426 251C422.431 249.765 420.494 249.042 418 246L414 247C413.101 244.876 413.124 244.899 411 244L412 247C410.566 245.608 409.955 244.767 409 243C410.85 242.798 412.15 242.798 414 243C411.574 239.729 406.936 239.227 404 236L410 239C407.688 234.437 402.951 231.296 400 227C403.49 224.635 397.978 224.307 396 225L397 222L391 224C391.188 220.355 391.044 218.404 394 216C392.195 215.031 391.202 214.687 390 213L398 216L394 210L390 212C390.328 209.934 390.208 207.874 391 206C389.341 205.594 388.758 205.691 387 206C385.849 203.2 385.013 201.057 385 198L382 200L385 206C381.899 203.926 380.427 203.333 377 205C377.899 202.876 377.876 202.899 380 202L379 197C380.635 197.545 380.455 197.365 381 199C381.405 196.31 380.225 194.444 379 192C380.635 192.545 380.455 192.365 381 194L383 191L384 193C385.356 189.402 380.535 190.01 378 190C379.436 188.551 380.115 187.778 381 186C378.768 186.363 377.232 186.363 375 186C376.754 185.415 375.995 185.332 378 186C378.511 184.048 378.733 183.543 380 182L379 179L381 180C379.618 177.58 378.637 176.939 376 176L377 181C375.93 179.198 375.32 178.035 375 176C372.585 172.003 377.06 171.368 380 173C381.117 169.976 378.528 169.76 376 170L376 167L374 168L373 164L376 165C374.125 162.677 371.924 162.406 369 162M381 162L382 163L381 162M383 162L384 163L383 162z"/>
<path style="fill:#ddded8; stroke:none;" d="M214 165L215 169C216.267 167.457 216.489 166.952 217 165L214 165M264 165L264 169C266.035 167.774 266.326 167.297 267 165L264 165z"/>
<path style="fill:#262527; stroke:none;" d="M377 165C377.406 167.092 377.217 167.02 379 168C378.309 166.612 378.015 166.139 377 165z"/>
<path style="fill:#ddded8; stroke:none;" d="M129 167C133.326 168.815 138.373 167.729 143 168.17C156.832 169.486 170.213 168.114 184 168L184 166C171.651 166.975 159.412 167.02 147 167C140.865 166.99 135.044 165.565 129 167M371 166L372 167L371 166M502 166C500.143 168.717 498.537 170.723 498 174C500.297 174.674 500.774 174.965 502 177C504.716 176.159 506.651 174.612 509 173C507.418 169.504 505.723 167.15 502 166z"/>
<path style="fill:#262527; stroke:none;" d="M380 167L381 168L380 167z"/>
<path style="fill:#ddded8; stroke:none;" d="M321 169C322.573 171.719 323.925 172.373 327 173L327 169L321 169M370.667 169.333C370.222 169.778 371.278 169.722 371.333 169.667C371.778 169.222 370.722 169.278 370.667 169.333M373 169L374 170L373 169M211 177C217.508 173.388 209.669 169.097 211 177M370.667 172.333C370.222 172.778 371.278 172.722 371.333 172.667C371.778 172.222 370.722 172.278 370.667 172.333z"/>
<path style="fill:#262527; stroke:none;" d="M374 173L374 175L376 175L376 173L374 173M377 173L377 175L379 175L379 173L377 173M380.333 174.667C380.278 174.722 380.222 175.778 380.667 175.333C380.722 175.278 380.778 174.222 380.333 174.667z"/>
<path style="fill:#ddded8; stroke:none;" d="M447.228 175.029C440.739 178.959 447.787 189.138 453.772 185.062C460.149 180.72 453.729 171.091 447.228 175.029z"/>
<path style="fill:#262527; stroke:none;" d="M298.109 176.742C289.509 180.421 297.14 193.776 304.867 189.781C313.253 185.444 306.999 172.939 298.109 176.742z"/>
<path style="fill:#ddded8; stroke:none;" d="M425 176L426 180L428 180L429 176L425 176z"/>
<path style="fill:#262527; stroke:none;" d="M230.043 177.743C219.852 181.818 225.52 198.31 235.985 194.257C246.507 190.181 240.953 173.381 230.043 177.743z"/>
<path style="fill:#ddded8; stroke:none;" d="M371 177L373 181C373.558 178.692 372.996 178.244 371 177M128 178L128 180L150 180L150 178L128 178M518 178C518.839 180.626 519.374 181.161 522 182L522 178L518 178M166 179C169.959 180.661 174.737 180 179 180C175.041 178.339 170.263 179 166 179M300.299 179.851C296.975 181.125 298.053 187.258 301.91 186.11C306.124 184.855 304.67 178.176 300.299 179.851M232.133 181.176C227.221 183.258 229.386 192.667 234.856 189.914C239.313 187.67 237.152 179.048 232.133 181.176M375.333 182.667C375.278 182.722 375.222 183.778 375.667 183.333C375.722 183.278 375.778 182.222 375.333 182.667M157.603 184.082C155.207 185.821 157.818 189.729 160.258 187.918C162.678 186.122 160.118 182.257 157.603 184.082z"/>
<path style="fill:#262527; stroke:none;" d="M380.333 183.667C380.278 183.722 380.222 184.778 380.667 184.333C380.722 184.278 380.778 183.222 380.333 183.667M245 185C244.915 188.623 244.239 191.6 243 195C252.538 198.992 260.701 205.678 270 210C272.177 207.985 274.502 207.845 277.001 206.326C284.235 201.93 292.596 194.645 290 186L245 185z"/>
<path style="fill:#ddded8; stroke:none;" d="M373.333 185.667C373.278 185.722 373.222 186.778 373.667 186.333C373.722 186.278 373.778 185.222 373.333 185.667z"/>
<path style="fill:#262527; stroke:none;" d="M383 187L384 188L383 187z"/>
<path style="fill:#ddded8; stroke:none;" d="M375 188L374 190L376 190C376 188.147 376.3 188.65 375 188M556.259 189.059C553.757 189.566 554.42 193.545 556.982 193.08C559.722 192.583 558.997 188.505 556.259 189.059M204 197C207.202 196.175 209.373 195.011 212 193C207.379 187.507 204.325 191.076 204 197M372 189L373 190L372 189M137 190L137 193C140.007 192.779 141.365 192.545 143 190L137 190M129 191L129 193C131.205 192.906 132.894 192.644 135 192C132.948 191.126 131.253 191.047 129 191M167 191L167 193L175 193L175 191L167 191M589 191L589 193L593 193L593 191L589 191M375.667 192.333C375.222 192.778 376.278 192.722 376.333 192.667C376.778 192.222 375.722 192.278 375.667 192.333z"/>
<path style="fill:#262527; stroke:none;" d="M294 193C290.058 197.557 279.744 203.663 278.921 209.892C278.408 213.779 285.638 216.068 287.988 213.382C290.982 209.959 292.413 201.401 294 197C294.517 205.047 284.546 216.168 294.98 220.91C296.641 221.665 298.218 221.806 300 222L300 194L294 193z"/>
<path style="fill:#ddded8; stroke:none;" d="M373 193L374 194L373 193z"/>
<path style="fill:#262527; stroke:none;" d="M303 194L303 213C303 215.991 302.358 219.972 303.603 222.775C305.222 226.419 310.753 227.196 314 228.809C322.936 233.249 331.313 239.209 341 242C337.901 234.536 332.277 229.246 327.389 223C323.05 217.456 319.434 211.484 314.924 206C311.287 201.578 308.738 195.688 303 194z"/>
<path style="fill:#ddded8; stroke:none;" d="M328 195C328.176 196.878 328.438 198.199 329 200L331 200C331.562 198.199 331.824 196.878 332 195L328 195M377 195C377.545 196.635 377.365 196.455 379 197L379 195L377 195M374 196C374.406 198.092 374.217 198.02 376 199C375.316 197.42 375.195 197.223 374 196z"/>
<path style="fill:#262527; stroke:none;" d="M390 196L391 197L390 196M241 197L240 198C243.092 208.816 248.785 219.089 254 229C257.145 227.908 258.995 226.399 261.285 223.956C263.542 221.549 268.793 217.715 268.793 214.093C268.793 211.22 265.08 209.505 262.999 208.285C256.065 204.219 248.747 199.236 241 197z"/>
<path style="fill:#ddded8; stroke:none;" d="M268 197L269 198L268 197z"/>
<path style="fill:#262527; stroke:none;" d="M388 198L389 199L388 198M392 198L393 199L392 198z"/>
<path style="fill:#ddded8; stroke:none;" d="M437.642 199.171C435.747 200.414 437.693 203.472 439.683 202.659C442.232 201.618 439.841 197.729 437.642 199.171M456 203L456 205C460.888 208.338 463.311 208.91 468 205L464 199C460.95 199.824 458.672 201.312 456 203z"/>
<path style="fill:#262527; stroke:none;" d="M234 200C236.742 214.772 235 231 235 246C241.512 246.718 252.71 238.269 252.222 231C251.854 225.511 246.027 218.087 243.691 213C241.47 208.162 239.756 200.996 234 200z"/>
<path style="fill:#ddded8; stroke:none;" d="M344 200C344.176 201.878 344.438 203.199 345 205C347.547 203.627 348.188 202.782 349 200L344 200z"/>
<path style="fill:#262527; stroke:none;" d="M390 200L391 201L390 200z"/>
<path style="fill:#ddded8; stroke:none;" d="M128 201L128 203C142.039 203 158.318 200.743 172 204C169.382 201.004 164.74 202.156 161 201.715C150.097 200.428 138.977 201 128 201M375.333 201.667C375.278 201.722 375.222 202.778 375.667 202.333C375.722 202.278 375.778 201.222 375.333 201.667z"/>
<path style="fill:#262527; stroke:none;" d="M386.667 201.333C386.222 201.778 387.278 201.722 387.333 201.667C387.778 201.222 386.722 201.278 386.667 201.333z"/>
<path style="fill:#ddded8; stroke:none;" d="M539 201C537.47 203.682 535.802 206.014 535 209C537.033 210.54 538.416 211.988 540 214C546.137 209.518 546.112 204.399 539 201M589 202L589 204L596 204L596 202L589 202z"/>
<path style="fill:#262527; stroke:none;" d="M388 203L389 204L388 203M394 204L395 205L394 204z"/>
<path style="fill:#ddded8; stroke:none;" d="M380 205C380.545 206.635 380.365 206.455 382 207L382 205L380 205z"/>
<path style="fill:#262527; stroke:none;" d="M498.004 205.743C484.75 210.812 491.643 232.811 505.996 227.258C520.081 221.809 511.576 200.552 498.004 205.743z"/>
<path style="fill:#ddded8; stroke:none;" d="M385 206C383.243 207.661 382.423 207.983 380 208L381 211C383.683 209.777 385.454 208.515 387 206L385 206M378 207L379 208L378 207z"/>
<path style="fill:#262527; stroke:none;" d="M392 207L393 208L392 207z"/>
<path style="fill:#ddded8; stroke:none;" d="M378.333 209.667C378.278 209.722 378.222 210.778 378.667 210.333C378.722 210.278 378.778 209.222 378.333 209.667M385 210L385 212L389 213C388.209 211.239 388.038 211.455 389 210C387.341 209.594 386.758 209.691 385 210z"/>
<path style="fill:#262527; stroke:none;" d="M397.333 210.667C397.278 210.722 397.222 211.778 397.667 211.333C397.722 211.278 397.778 210.222 397.333 210.667z"/>
<path style="fill:#ddded8; stroke:none;" d="M500.109 211.161C493.438 213.939 496.806 226.318 503.895 222.777C510.229 219.614 506.989 208.296 500.109 211.161M199 211C198.438 212.8 198.176 214.122 198 216L201 216L201 211L199 211M129 213L129 215C134.642 215 140.563 215.607 146 214C141.026 211.913 134.362 213 129 213M150 213L150 215L171 215L171 213L150 213M383 213L384 214L383 213M387 214L388 215L387 214M380 215L380 217L382 217L382 215L380 215M384.667 215.333C384.222 215.778 385.278 215.722 385.333 215.667C385.778 215.222 384.722 215.278 384.667 215.333z"/>
<path style="fill:#262527; stroke:none;" d="M266 253C268.686 252.499 271.27 252.117 274 252C275.248 244.75 278.882 237.696 281.861 231C283.088 228.242 285.969 224.358 285.184 221.185C284.223 217.306 279.34 216.326 276 216.624C268.392 217.303 262.125 224.418 258.747 231C255.569 237.193 264.226 246.84 266 253z"/>
<path style="fill:#ddded8; stroke:none;" d="M389.333 216.667C389.278 216.722 389.222 217.778 389.667 217.333C389.722 217.278 389.778 216.222 389.333 216.667z"/>
<path style="fill:#262527; stroke:none;" d="M394 217C395.248 217.685 395.549 217.749 397 218C395.752 217.315 395.452 217.251 394 217z"/>
<path style="fill:#ddded8; stroke:none;" d="M148 218C146.565 222.853 147 227.964 147 233C143.162 233.589 140.651 236.267 137 237.116C134.517 237.693 131.538 237.05 129 237L129 239C137.266 239.075 139.882 244.53 147 247C145.817 251.97 146 256.919 146 262L150 262C150 258.09 149.116 252.893 150.589 249.209C153.486 241.962 163.078 238.933 170 238C166.393 236.49 162.679 237.922 159 236.825C150.273 234.221 150.594 225.52 150 218L148 218M383 218L384 219L383 218M386.667 218.333C386.222 218.778 387.278 218.722 387.333 218.667C387.778 218.222 386.722 218.278 386.667 218.333M380.667 219.333C380.222 219.778 381.278 219.722 381.333 219.667C381.778 219.222 380.722 219.278 380.667 219.333z"/>
<path style="fill:#262527; stroke:none;" d="M392 219C393.314 220.618 393.877 220.693 396 221C394.542 219.919 393.752 219.564 392 219M397 219L398 220L397 219M402 219L403 220L402 219z"/>
<path style="fill:#ddded8; stroke:none;" d="M387.667 221.333C387.222 221.778 388.278 221.722 388.333 221.667C388.778 221.222 387.722 221.278 387.667 221.333z"/>
<path style="fill:#262527; stroke:none;" d="M400 221L401 222L400 221z"/>
<path style="fill:#ddded8; stroke:none;" d="M244 222L244 224L246 224L246 222L244 222z"/>
<path style="fill:#262527; stroke:none;" d="M293 256C287.846 258.477 283.489 257.236 278 257C276.761 260.641 275.078 262.709 272 265C273.226 268.873 276.43 277.935 281.185 278.469C284.669 278.86 288.982 275.856 292 274.413C294.391 273.27 298.176 272.281 299.397 269.698C302.368 263.409 296.627 259.469 296.627 253.985C296.627 251.394 298.702 249.4 299.377 247C300.114 244.376 299.269 241.645 299.09 239C298.723 233.619 299.485 219.662 289.275 222.736C286.789 223.485 285.751 226.922 284.745 229.001C282.058 234.553 279.443 240.25 277.204 246C276.333 248.238 274.805 251.323 276.121 253.682C278.459 257.874 288.953 256 293 256z"/>
<path style="fill:#ddded8; stroke:none;" d="M342 222C342.899 224.124 342.876 224.101 345 225C344.518 222.636 344.364 222.482 342 222z"/>
<path style="fill:#262527; stroke:none;" d="M402.333 222.667C402.278 222.722 402.222 223.778 402.667 223.333C402.722 223.278 402.778 222.222 402.333 222.667z"/>
<path style="fill:#ddded8; stroke:none;" d="M129 223C130.389 227.182 133.082 226.89 137 226L137 224C134.271 223.19 131.85 223.021 129 223M458 227C460.904 226.899 461.565 226.524 463 224L462 223C459.751 224.154 459.154 224.751 458 227M390 224L391 225L390 224M157 225C160.959 226.661 165.737 226 170 226C166.041 224.339 161.263 225 157 225M393.667 225.333C393.222 225.778 394.278 225.722 394.333 225.667C394.778 225.222 393.722 225.278 393.667 225.333M397 225L397 227L399 227L399 225L397 225z"/>
<path style="fill:#262527; stroke:none;" d="M404.667 225.333C404.222 225.778 405.278 225.722 405.333 225.667C405.778 225.222 404.722 225.278 404.667 225.333z"/>
<path style="fill:#ddded8; stroke:none;" d="M477.603 226.157C475.87 227.315 477.664 230.001 479.397 228.843C481.13 227.686 479.336 224.999 477.603 226.157z"/>
<path style="fill:#262527; stroke:none;" d="M303 227C303 233.327 301.983 240.627 303.274 246.83C303.866 249.674 305.44 252.111 306 255L343 255C343.166 252.798 344.103 249.555 342.883 247.546C341.025 244.486 335.087 242.336 332 240.757C322.538 235.917 313.323 229.823 303 227z"/>
<path style="fill:#ddded8; stroke:none;" d="M391 227L392 228L391 227M395 227L395 229L397 229C396.455 227.365 396.635 227.545 395 227z"/>
<path style="fill:#262527; stroke:none;" d="M406 227L407 228L406 227M403 228C403.684 229.58 403.805 229.777 405 231C404.316 229.42 404.195 229.223 403 228z"/>
<path style="fill:#ddded8; stroke:none;" d="M398 229C399.383 232.258 400.851 234.352 404 236C402.565 232.99 400.858 230.739 398 229M520 229C520.497 232.066 521.036 233.032 524 234C523.188 231.218 522.547 230.373 520 229M393 230L394 231L393 230M390.333 231.667C390.278 231.722 390.222 232.778 390.667 232.333C390.722 232.278 390.778 231.222 390.333 231.667M396 231C396.776 233.132 397.13 233.771 399 235C398.157 233.231 397.459 232.312 396 231z"/>
<path style="fill:#262527; stroke:none;" d="M406.667 232.333C406.222 232.778 407.278 232.722 407.333 232.667C407.778 232.222 406.722 232.278 406.667 232.333z"/>
<path style="fill:#ddded8; stroke:none;" d="M393 233L394 234L393 233z"/>
<path style="fill:#262527; stroke:none;" d="M409 234L410 235L409 234z"/>
<path style="fill:#ddded8; stroke:none;" d="M289 238C291.124 237.101 291.101 237.124 292 235C289.636 235.482 289.482 235.636 289 238z"/>
<path style="fill:#262527; stroke:none;" d="M241 248C244.045 258.13 255.492 254.42 264 256L265 255C262.664 248.58 259.439 241.914 256 236C250.111 238.746 246.275 244.284 241 248z"/>
<path style="fill:#ddded8; stroke:none;" d="M392.333 236.667C392.278 236.722 392.222 237.778 392.667 237.333C392.722 237.278 392.778 236.222 392.333 236.667M399.667 236.333C399.222 236.778 400.278 236.722 400.333 236.667C400.778 236.222 399.722 236.278 399.667 236.333z"/>
<path style="fill:#262527; stroke:none;" d="M411 236L412 237L411 236M146 237C147.226 239.035 147.703 239.326 150 240C148.771 238.13 148.132 237.776 146 237z"/>
<path style="fill:#ddded8; stroke:none;" d="M267 237L266 238L266 240L267 241L269 241L270 240L270 238L269 237L267 237M579 239C585.001 237.886 590.917 238 597 238C592.802 236.239 582.154 235.391 579 239M198 238C198.713 246.113 203.36 253.54 206.397 261C211.945 274.63 216.711 289.192 224 302C226.209 296.282 221.098 289.227 218.872 284C212.446 268.916 207.628 252.477 200 238L198 238M402 238L403 239L402 238z"/>
<path style="fill:#262527; stroke:none;" d="M413 238L414 239L413 238z"/>
<path style="fill:#ddded8; stroke:none;" d="M399 239L399 241L401 241L401 239L399 239M404 239L404 241L406 241C405.455 239.365 405.635 239.545 404 239z"/>
<path style="fill:#262527; stroke:none;" d="M415 240L416 241L415 240z"/>
<path style="fill:#ddded8; stroke:none;" d="M401 242L401 244L403 244L403 242L401 242M406 242L406 244L408 244L408 242L406 242M404 244L403 246L405 246C405 244.147 405.3 244.65 404 244z"/>
<path style="fill:#262527; stroke:none;" d="M415 244L416 245L415 244M418.667 244.333C418.222 244.778 419.278 244.722 419.333 244.667C419.778 244.222 418.722 244.278 418.667 244.333z"/>
<path style="fill:#ddded8; stroke:none;" d="M255 245L255 248C256.195 246.777 256.316 246.58 257 245L255 245M407.667 246.333C407.222 246.778 408.278 246.722 408.333 246.667C408.778 246.222 407.722 246.278 407.667 246.333z"/>
<path style="fill:#262527; stroke:none;" d="M420 246L420 248C421.635 247.455 421.455 247.635 422 246L420 246M351.105 247.917C344.843 250.193 347.019 261.534 353.892 259.338C360.198 257.323 357.9 245.447 351.105 247.917z"/>
<path style="fill:#ddded8; stroke:none;" d="M564 247C558.65 257.66 559.238 271.434 556.497 283C551.747 303.046 543.031 322.148 531.229 339C521.494 352.901 507.6 365.242 494 375.265C486.23 380.992 473.214 387.157 469 396C474.505 395.402 478.483 392.344 483 389.333C489.768 384.822 496.474 380.229 503 375.37C533.986 352.302 556.814 316.243 563.247 278C564.851 268.465 568.794 256.473 566 247L564 247M128 248L128 250L139 250L139 248L128 248M156 249C160.662 251.241 165.919 250.999 171 251L171 248C165.918 248.001 161.045 248.602 156 249M404.667 248.333C404.222 248.778 405.278 248.722 405.333 248.667C405.778 248.222 404.722 248.278 404.667 248.333M412.667 248.333C412.222 248.778 413.278 248.722 413.333 248.667C413.778 248.222 412.722 248.278 412.667 248.333M416 248L416 250L418 250L418 248L416 248z"/>
<path style="fill:#262527; stroke:none;" d="M422.667 248.333C422.222 248.778 423.278 248.722 423.333 248.667C423.778 248.222 422.722 248.278 422.667 248.333M427 248L428 249L427 248z"/>
<path style="fill:#ddded8; stroke:none;" d="M378 249C377.519 251.201 377.519 251.799 378 254L380 254C380.481 251.799 380.481 251.201 380 249L378 249M579 249C583.974 251.087 590.638 250 596 250C591.026 247.913 584.362 249 579 249z"/>
<path style="fill:#262527; stroke:none;" d="M230.225 251.032C223.071 255.184 227.788 268.118 235.941 263.816C243.435 259.863 237.676 246.708 230.225 251.032M429 250L430 251L429 250M433.667 250.333C433.222 250.778 434.278 250.722 434.333 250.667C434.778 250.222 433.722 250.278 433.667 250.333z"/>
<path style="fill:#ddded8; stroke:none;" d="M351 251C351.497 254.066 352.036 255.032 355 256C354.503 252.934 353.964 251.968 351 251M413 251L413 253C414.635 252.455 414.455 252.635 415 251L413 251M418.667 251.333C418.222 251.778 419.278 251.722 419.333 251.667C419.778 251.222 418.722 251.278 418.667 251.333M232 253C230.818 255.43 230.27 257.313 230 260C235.347 259.583 237.21 255.88 232 253M416.667 253.333C416.222 253.778 417.278 253.722 417.333 253.667C417.778 253.222 416.722 253.278 416.667 253.333z"/>
<path style="fill:#262527; stroke:none;" d="M433 253L434 254L433 253z"/>
<path style="fill:#ddded8; stroke:none;" d="M411.667 254.333C411.222 254.778 412.278 254.722 412.333 254.667C412.778 254.222 411.722 254.278 411.667 254.333M419 254L420 255L419 254z"/>
<path style="fill:#262527; stroke:none;" d="M429 254L430 255L429 254M269 256L269 261C272.844 259.723 272.844 257.277 269 256M431 256L432 257L431 256M439.667 256.333C439.222 256.778 440.278 256.722 440.333 256.667C440.778 256.222 439.722 256.278 439.667 256.333M444.333 256.667C444.278 256.722 444.222 257.778 444.667 257.333C444.722 257.278 444.778 256.222 444.333 256.667M244 257L242 266C253.918 270.518 264.552 288.038 278 281C276.483 276.238 273.572 271.079 270.37 267.209C267.317 263.52 264.178 261.911 263 257C256.394 258.226 250.601 257.283 244 257M305.318 258.198C302.002 259.989 302.248 267.925 304.028 270.698C305.341 272.743 307.911 273.396 310.001 274.333C314.421 276.314 318.657 278.678 322.999 280.817C325.035 281.82 327.292 283.078 329.536 281.917C332.187 280.547 334.112 277.154 336.086 275C339.062 271.754 346.185 266.161 344.914 261.059C343.996 257.371 340.124 257.064 336.999 257.005C329.596 256.865 322.358 257.998 315 257.998C312.234 257.999 307.827 256.842 305.318 258.198z"/>
<path style="fill:#ddded8; stroke:none;" d="M421.667 257.333C421.222 257.778 422.278 257.722 422.333 257.667C422.778 257.222 421.722 257.278 421.667 257.333M424.667 257.333C424.222 257.778 425.278 257.722 425.333 257.667C425.778 257.222 424.722 257.278 424.667 257.333z"/>
<path style="fill:#262527; stroke:none;" d="M446 258L447 259L446 258z"/>
<path style="fill:#ddded8; stroke:none;" d="M129 259L129 262C134.101 262 138.948 261.639 144 261L144 259L129 259M427.667 259.333C427.222 259.778 428.278 259.722 428.333 259.667C428.778 259.222 427.722 259.278 427.667 259.333M436 259L433 262C435.791 264.272 438.447 265.436 442 266C440.047 264.276 438.537 263.655 436 263L438 259L436 259M965 261L965 346C965 355.684 962.107 371.927 967.769 380.427C970.74 384.89 980.392 383 985 383L1030 383C1034.06 383 1042.93 384.663 1046.26 381.972C1049.93 379.003 1048 368.268 1048 364C1045.21 363.645 1042.68 362.463 1039.91 362.129C1029.24 360.842 1017.75 362 1007 362C1002.15 362 993.522 363.627 989.318 360.821C987.011 359.282 987.051 356.481 987.005 353.999C986.885 347.637 986.031 341.343 986.001 335C985.879 309.668 986 284.332 986 259C978.798 259 972.08 259.666 965 261M1221 260C1216.12 260 1205.6 258.017 1201.6 261.179C1199.45 262.886 1200.01 266.59 1200 269L1200 288L1200 318C1200 333.34 1199.95 348.086 1186.19 357.758C1180.81 361.539 1175.37 362 1169 362C1165.46 362 1161.7 362.356 1158.29 361.275C1127.94 351.674 1136 311.399 1136 287L1136 270C1136 267.382 1136.49 263.95 1135.14 261.573C1132.76 257.384 1121.98 258.443 1118.02 259.394C1111.85 260.876 1113 266.966 1113 272L1113 310C1113.01 316.421 1114.22 322.63 1114.83 329C1115.26 333.564 1114.44 338.314 1115.26 342.83C1117.45 354.927 1125.14 366.627 1134.34 374.617C1154.99 392.541 1194.81 387.9 1210.78 366.255C1220.51 353.059 1221 336.54 1221 321L1221 260M1316 301C1329.52 310.789 1337.67 326.672 1348.15 339.279C1355.23 347.801 1362.69 356.139 1369.91 364.546C1374.77 370.202 1380.21 375.925 1383 383L1404 383L1404 292C1404 284.008 1404.62 275.843 1402.88 268.001C1402.41 265.844 1402.29 262.649 1400.4 261.179C1397.06 258.582 1382.77 258.5 1381.32 263.228C1379.14 270.32 1381 280.592 1381 288L1381 342C1374.04 338.363 1371.34 328.418 1364 326C1363.05 319.469 1356.03 313.699 1352.14 308.49C1340.66 293.096 1328.23 276.881 1314.77 263.09C1311.32 259.562 1297.23 256.722 1295.32 263.148C1292.86 271.442 1295 283.351 1295 292L1295 355C1295 361.99 1294.8 369.014 1295.02 376C1295.1 378.808 1295.3 382.077 1298.23 383.397C1302.01 385.1 1312.2 384.998 1314.26 380.721C1317.2 374.62 1314.85 363.685 1315.01 357C1315.47 338.356 1316 319.711 1316 301M154 260L154 262L170 262L170 260L154 260M417 260C417.545 261.635 417.365 261.455 419 262L419 260L417 260M422.667 260.333C422.222 260.778 423.278 260.722 423.333 260.667C423.778 260.222 422.722 260.278 422.667 260.333M430 260L430 262L432 262L432 260L430 260z"/>
<path style="fill:#262527; stroke:none;" d="M448 260L449 261L448 260M453 260L454 261L453 260z"/>
<path style="fill:#ddded8; stroke:none;" d="M577 260L577 262L597 262L597 260L577 260M1461 383L1477 382.999C1479.64 382.982 1482.76 383.236 1484.73 381.106C1488.76 376.722 1490.06 367.134 1492.33 361.576C1493.27 359.273 1494.02 356.391 1496.34 355.067C1499.89 353.044 1507.9 355 1512 355L1552 355C1553.61 361.709 1557.74 368.302 1560.58 374.614C1561.69 377.07 1562.02 380.7 1564.57 382.142C1569.86 385.132 1578.56 382.123 1584 381C1583.8 372.764 1579.36 364.979 1576.04 357.576C1572.65 350.034 1569.79 342.471 1566.17 335.001C1555.84 313.654 1549.13 290.534 1538.29 269.425C1533.71 260.512 1526.72 258.581 1517.02 260.148C1513.13 260.775 1511.63 263.709 1510.08 267.001C1506.64 274.32 1503.26 282.242 1500.59 289.869C1496.13 302.661 1489.02 314.529 1483.42 326.804C1479.49 335.4 1476.25 344.38 1472.3 353.004C1468.01 362.359 1461.31 372.444 1461 383z"/>
<path style="fill:#262527; stroke:none;" d="M443 261L444 262L443 261z"/>
<path style="fill:#ddded8; stroke:none;" d="M1703 336L1704 337C1700.68 348.449 1691.55 361.288 1678.91 363.736C1671.84 365.105 1664.2 362.683 1657.18 364.278C1654.21 364.955 1652.01 367.228 1649 368C1649.41 373.776 1653.3 377.227 1658 380.265C1668.23 386.873 1682.13 387.008 1692.53 380.286C1698.83 376.208 1703.29 369.132 1710 366C1712.04 357.354 1718.58 349.454 1721.69 340.996C1726.69 327.364 1727.5 308.845 1722.69 295.09C1717.03 278.92 1701.81 262.524 1684 261.108C1667.22 259.774 1650.48 272.093 1642.19 285.87C1629.14 307.574 1646.43 336.5 1669.29 342.54C1681.26 345.704 1692.76 341.762 1703 336M370 262L369 266L373 266L372 262L370 262M425.667 262.333C425.222 262.778 426.278 262.722 426.333 262.667C426.778 262.222 425.722 262.278 425.667 262.333z"/>
<path style="fill:#262527; stroke:none;" d="M445 262C446.248 262.685 446.548 262.749 448 263C446.752 262.315 446.452 262.251 445 262z"/>
<path style="fill:#ddded8; stroke:none;" d="M330 263L331 266C331.685 264.751 331.749 264.452 332 263L330 263z"/>
<path style="fill:#262527; stroke:none;" d="M347 263C345.16 271.963 346 279.852 346 289C343.204 283.761 344 277.815 344 272C338.245 274.691 333.991 279.997 332 286C338.905 289.52 345.514 293.882 352 298.138C356.359 300.999 360.653 303.197 363 308C355.064 303.582 347.745 298.06 340 293.319C337.392 291.722 333.35 288.297 330.09 288.881C325.38 289.725 320.823 297.645 317.834 301C313.65 305.697 310.956 308.536 312 315L334 315C336.673 314.996 341.054 315.629 342.972 313.258C345.179 310.53 344 304.307 344 301C345.031 304.489 343.786 310.566 346.028 313.397C347.573 315.348 350.8 315.007 353 314.995C360.175 314.956 366.473 310.464 368.216 303C369.086 299.274 366.506 294.4 365.189 291C361.307 280.979 357.959 266.579 347 263z"/>
<path style="fill:#ddded8; stroke:none;" d="M428 263L428 265L430 265L430 263L428 263z"/>
<path style="fill:#262527; stroke:none;" d="M457.333 263.667C457.278 263.722 457.222 264.778 457.667 264.333C457.722 264.278 457.778 263.222 457.333 263.667z"/>
<path style="fill:#ddded8; stroke:none;" d="M327 264C326.861 266.453 326.929 266.676 329 268L329 264L327 264M443 266C441.098 267.156 440.278 267.156 438 267C440.809 269.043 442.955 268.885 445 266L443 266z"/>
<path style="fill:#262527; stroke:none;" d="M455.667 266.333C455.222 266.778 456.278 266.722 456.333 266.667C456.778 266.222 455.722 266.278 455.667 266.333M466 266L467 267L466 266z"/>
<path style="fill:#ddded8; stroke:none;" d="M388 273L390 273C390.562 271.199 390.824 269.878 391 268C387.964 269 387.506 269.863 388 273M433 268L434 269L433 268z"/>
<path style="fill:#262527; stroke:none;" d="M462.333 268.667C462.278 268.722 462.222 269.778 462.667 269.333C462.722 269.278 462.778 268.222 462.333 268.667z"/>
<path style="fill:#ddded8; stroke:none;" d="M447 272C448.949 271.064 449.55 270.608 451 269C449.051 269.936 448.45 270.392 447 272M439 270C439.98 271.783 439.908 271.594 442 272C440.777 270.805 440.58 270.684 439 270M444.667 270.333C444.222 270.778 445.278 270.722 445.333 270.667C445.778 270.222 444.722 270.278 444.667 270.333M453 270L454 271L453 270M457.667 270.333C457.222 270.778 458.278 270.722 458.333 270.667C458.778 270.222 457.722 270.278 457.667 270.333z"/>
<path style="fill:#262527; stroke:none;" d="M478 270L479 271L478 270z"/>
<path style="fill:#ddded8; stroke:none;" d="M128 271L128 274L173 274L173 272L128 271z"/>
<path style="fill:#262527; stroke:none;" d="M471 273L474 272C472.222 271.045 471.979 271.234 471 273M494 271L495 272L494 271z"/>
<path style="fill:#ddded8; stroke:none;" d="M450.667 272.333C450.222 272.778 451.278 272.722 451.333 272.667C451.778 272.222 450.722 272.278 450.667 272.333M454.667 272.333C454.222 272.778 455.278 272.722 455.333 272.667C455.778 272.222 454.722 272.278 454.667 272.333M459 272L459 274L461 274L461 272L459 272z"/>
<path style="fill:#262527; stroke:none;" d="M477.333 272.667C477.278 272.722 477.222 273.778 477.667 273.333C477.722 273.278 477.778 272.222 477.333 272.667M480 272L480 274C481.635 273.455 481.455 273.635 482 272L480 272z"/>
<path style="fill:#ddded8; stroke:none;" d="M575 272L575 274L596 274L596 272L575 272M448 274L449 275L448 274z"/>
<path style="fill:#262527; stroke:none;" d="M299 275C294.674 275.745 282.921 278.54 282.708 284.105C282.499 289.57 288.953 298.702 292.104 302.938C293.377 304.648 295.333 306.799 297.697 305.673C300.375 304.397 299.983 300.421 299.999 298C300.053 290.269 299.064 282.687 299 275M303 275L303 306C313.499 307.83 323.569 292.921 327 284C318.686 281.922 311.546 276.066 303 275z"/>
<path style="fill:#ddded8; stroke:none;" d="M457 275L458 276L457 275M460 275L460 277L462 277L462 275L460 275M464 275L464 277L466 277L466 275L464 275z"/>
<path style="fill:#262527; stroke:none;" d="M494 276L495 277L494 276z"/>
<path style="fill:#ddded8; stroke:none;" d="M375 277L375 279L377 279L377 277L375 277M407 277C400.102 288.028 387.041 294.673 381 306C385.493 303.903 388.308 300.193 392 297C390.935 303.908 398.533 299.171 392 297C397.742 291.258 406.753 285.006 409 277L407 277M484 277L485 278L484 277M309 279C309.899 281.124 309.876 281.101 312 282C311.098 280.077 310.924 280.001 309 279M246 281L245 282L245 284L246 285L248 285L249 284L249 282L248 281L246 281z"/>
<path style="fill:#262527; stroke:none;" d="M292 315C295.645 300.616 279.41 296.385 270.129 289.251C266.958 286.813 263.355 280.052 258.39 281.711C255.428 282.701 254.03 287.472 252.833 290C249.903 296.187 239.427 308.104 248.39 313.682C252.056 315.963 257.884 315 262 315L292 315z"/>
<path style="fill:#ddded8; stroke:none;" d="M127 287L150 287L150 283C143.793 284.152 130.595 281.454 127 287M161 283C152.856 284.359 160.282 292.222 161 283z"/>
<path style="fill:#262527; stroke:none;" d="M285 296C284.524 292.827 279.818 277.869 274.751 285.438C271.577 290.178 281.782 294.933 285 296z"/>
<path style="fill:#ddded8; stroke:none;" d="M164 284L164 286L176 286L176 284L164 284z"/>
<path style="fill:#262527; stroke:none;" d="M1672.44 284.728C1654.33 290.911 1656.8 315.766 1672.51 323.157C1676.47 325.02 1684.48 324.66 1688.56 323.272C1692.92 321.789 1698.67 318.532 1701.49 314.895C1703.73 312.005 1703.97 308.518 1704 305.001C1704.09 288.888 1687 279.757 1672.44 284.728M578.43 287.086C574.562 289.358 577.152 297.344 581.582 294.863C585.596 292.615 582.985 284.411 578.43 287.086z"/>
<path style="fill:#ddded8; stroke:none;" d="M380 290C382.124 289.101 382.101 289.124 383 287C380.636 287.482 380.482 287.636 380 290M416.059 290.176C410.524 292.297 413.568 300.921 418.891 298.824C424.271 296.705 421.456 288.108 416.059 290.176z"/>
<path style="fill:#262527; stroke:none;" d="M1522 290C1520.69 295.779 1517.36 301.161 1515.05 306.614C1511.71 314.479 1509.4 323.972 1503 330C1504.97 334.893 1509.34 334 1514 334L1542 334C1539.63 323.182 1533.24 314.291 1529.58 304C1527.86 299.166 1526.81 292.521 1522 290z"/>
<path style="fill:#ddded8; stroke:none;" d="M513 298L513 291C508.506 292.507 509.342 295.857 513 298M523 292C524.95 295.513 527.589 296.203 529 292C526.768 291.637 525.232 291.637 523 292M447 296L447 298L451 299L451 295L447 296M164 296L164 298L175 299L175 296L164 296M495 296L494 300C496.698 299.422 496.789 298.739 497 296L495 296M127 297L127 299L149 298C142.798 295.397 133.702 297 127 297M260 305L265 305C264.824 303.122 264.562 301.801 264 300C261.453 301.373 260.812 302.218 260 305M326 302L327 306L329 306L330 302L326 302M433.357 303.172C430.714 304.587 433.173 308.381 435.683 307.539C438.796 306.495 436.243 301.628 433.357 303.172M511 306L511 313L513 313L513 306L511 306M128 307L128 310L170 310L170 308L128 307M568 307C569.807 315.8 568.495 325.525 571 334C573.862 328.617 573.012 321.935 573 316C572.995 313.735 573.444 310.547 571.997 308.603C570.973 307.228 569.525 307.255 568 307z"/>
<path style="fill:#262527; stroke:none;" d="M231.059 309.028C222.16 313.881 229.507 329.047 238.891 323.82C247.82 318.847 240.581 303.834 231.059 309.028M369.148 310.047C362.708 313.539 368.164 324.759 374.772 320.957C380.916 317.422 375.439 306.636 369.148 310.047M299.149 311.032C293.023 314.552 299.11 323.169 304.851 319.957C310.995 316.519 304.995 307.674 299.149 311.032z"/>
<path style="fill:#ddded8; stroke:none;" d="M533 310L533 312L535 312L535 310L533 310M234.129 312.176C229.406 314.211 231.876 322.64 236.687 319.914C240.248 317.895 238.662 310.223 234.129 312.176M375 314C366.266 312.529 372.585 321.267 375 314M300 314L300 316L304 316L304 314L300 314M466.109 315.137C459.528 318.02 462.699 328.965 469.941 326.377C476.946 323.875 472.66 312.266 466.109 315.137M528 316C529.226 318.035 529.703 318.326 532 319C531.422 316.303 530.739 316.211 528 316z"/>
<path style="fill:#262527; stroke:none;" d="M312 318C309.793 325.334 313.186 329.376 316.139 336C321.293 347.561 328.175 358.409 333.116 370C335.984 376.729 338.702 383.893 347 382C346.869 377.064 349.805 372.676 351.23 368C354.403 357.593 357.876 347.576 360.629 337C361.796 332.517 365.91 323.686 362.138 319.603C359.093 316.308 350.112 318 346 318L346 377C342.931 368.804 344.003 359.623 344 351C343.996 339.946 343.007 329.049 343 318L312 318z"/>
<path style="fill:#ddded8; stroke:none;" d="M128 319L128 322L163 322C160.666 318.4 157.005 319.002 153 319L128 319z"/>
<path style="fill:#262527; stroke:none;" d="M467 319L467 322L469 322L469 319L467 319M508.044 322.743C498.562 326.554 503.742 343.048 513.996 339.392C525.478 335.298 519.139 318.284 508.044 322.743z"/>
<path style="fill:#ddded8; stroke:none;" d="M272 323L273 327L275 327L276 323L272 323M558 325C561.369 351.66 560 379.13 560 406L563 406L563 325L558 325z"/>
<path style="fill:#262527; stroke:none;" d="M420.109 327.032C411.731 331.586 417.725 346.755 426.956 341.968C436.237 337.156 428.92 322.243 420.109 327.032z"/>
<path style="fill:#ddded8; stroke:none;" d="M771 332C775.362 340.648 793.575 337 802 337L868 337C873.639 337 879.372 336.704 885 337.09C887.649 337.271 891.138 338.551 893.682 337.382C897.22 335.757 896 329.136 896 326C881.044 326 865.941 325.385 851 326.039C839.584 326.539 828.504 328 817 328C809.268 328 801.683 328.797 794 328.985C786.155 329.178 778.254 328.489 771 332M1918 334C1914.86 323.84 1896.35 328.895 1888 327.116C1878.59 325.11 1868.58 326 1859 326L1811 326L1792 326C1789.8 326.005 1786.59 325.534 1784.74 327.028C1780.68 330.316 1783.46 336.527 1788.02 336.941C1801.59 338.176 1817.51 338.196 1831 336.424C1842.72 334.885 1855.18 336 1867 336C1877.6 336 1888.42 336.635 1899 335.91C1905.37 335.474 1911.6 334.053 1918 334M510 327C509.428 329.377 509.11 331.558 509 334C513.954 333.173 515.205 328.729 510 327M371 329L371 349L373 349L373 329L371 329M134 336L134 330C129.698 331.419 129.965 334.375 134 336M143 336C144.875 335.453 146.255 334.89 148 334C145.41 329.334 141.835 330.887 143 336M422.603 333.175C420.43 334.526 422.236 338.633 424.721 337.655C427.699 336.483 425.263 331.523 422.603 333.175M386.643 340.082C384.526 341.745 387.296 345.054 389.357 343.268C391.437 341.465 388.732 338.44 386.643 340.082M447 343L451 344C451.481 341.799 451.481 341.201 451 339C448.751 340.154 448.154 340.751 447 343M571 340L571 392C571 397.364 569.008 406.764 574 410L574 361C574 354.222 575.692 345.44 571 340M548 342L548 383C548 387.906 546.457 395.051 552 397L552 342L548 342M215 349C221.508 345.388 213.669 341.097 215 349M132 344C129.97 350.868 131 358.869 131 366L131 407L133 407C134.888 392.065 135 376.056 135 361C135 355.186 136.223 348.507 132 344M467 344L466 348C468.201 348.481 468.799 348.481 471 348L470 344L467 344M144 346L144 352C145.582 349.943 145.826 348.612 146 346L144 346M370.059 352.047C363.551 355.334 368.817 364.923 374.853 361.777C380.829 358.661 376.258 348.917 370.059 352.047M502 351C501.519 353.201 501.519 353.799 502 356L504 356L505 352L504 351L502 351M501 413L501 417C506.796 417 516.668 415.104 521.816 418.028C527.865 421.464 529.474 428.211 537 430C537 443.24 537.847 456.793 536.946 470C536.754 472.817 533.189 481.793 538.91 481.793C543.348 481.793 541.034 472.524 541.004 470C540.849 456.947 542 444.052 542 431C546.859 430.252 550.562 427.851 553.676 423.995C555.409 421.849 556.442 418.599 559.153 417.477C564.622 415.213 575.832 420.413 578 413C570.955 412.11 564.103 412 557 412C556.133 407.214 553.943 403.723 549.985 400.789C547.527 398.966 543.902 397.776 542.603 394.787C541.265 391.705 542 387.284 542 384C542 378.278 541.072 372.695 541.004 367C540.972 364.346 542.138 357.879 539.455 356.176C537.43 354.891 536.492 357.565 536.434 359.059C536.255 363.609 537 368.398 537 373C537 379.218 539.102 390.194 535.972 395.715C534.149 398.93 530.6 401.207 528.213 404.001C526.201 406.355 524.762 410.105 521.787 411.397C516.615 413.642 506.727 412.754 501 413M414 362C413.209 361.835 411.812 361.348 410.898 361.438C404.543 362.057 409.641 369.727 413.257 364.842C413.787 364.126 413.839 362.738 414 362M461 366C457.242 359.23 453.199 367.778 461 366M307 366C310.766 374.07 322.324 383.75 331 386C327.168 378.137 314.995 369.38 307 366M241 367L242 372L244 372C244.562 370.199 244.824 368.878 245 367L241 367M525 399C530.667 395.326 527.676 383.081 528.089 377C528.252 374.618 529.64 370.758 527.977 368.662C526.566 366.884 524.788 368.479 524.487 370.153C523.994 372.891 524.963 376.201 524.996 379L525 387L525 399M143 370L143 400C146.348 397.829 145.992 394.787 146 391L146 370L143 370M281 373C273.691 374.218 279.782 380.309 281 373M290 375C290 386.945 290.621 399.075 289.957 411C289.695 415.694 286.164 421.056 292 423L292 375L290 375M421.143 379.89C416.105 381.275 418.939 389.029 423.856 387.338C428.621 385.699 425.663 378.648 421.143 379.89M513 409L516 409C516.211 398.774 517.297 389.259 516 379C511.36 380.545 512.633 383.817 512.911 388C513.372 394.951 513 402.034 513 409M301 380C301 413.367 300 446.608 300 480L300 503C300.009 507.175 299.619 510.546 304 512L304 380L301 380M402 384L402 529L402 564C402 568.572 400.773 574.26 405 577L406 441L405 384L402 384M312 387L311 528L315 528L316 387L312 387z"/>
<path style="fill:#262527; stroke:none;" d="M344 387.548C325.998 391.301 331.993 418.493 350 413.566C365.869 409.225 359.397 384.338 344 387.548z"/>
<path style="fill:#ddded8; stroke:none;" d="M379 388L379 456L383 456C383 433.288 382.972 410.64 382 388L379 388M391 388L391 446C391 451.753 388.947 462.153 394 466L394 388L391 388z"/>
<path style="fill:#262527; stroke:none;" d="M454.044 388.747C445.321 392.127 450.139 405.626 458.981 402.392C467.84 399.151 462.906 385.313 454.044 388.747z"/>
<path style="fill:#ddded8; stroke:none;" d="M502 389C500.316 394.173 498.534 409.108 505 411C505 403.863 506.031 395.871 504 389L502 389M341.109 394.028C331.916 399.186 341.045 412.932 349.891 407.972C359.392 402.646 350.24 388.904 341.109 394.028M454 394L454 398L459 398L459 394L454 394M280 403C280.164 402.212 280.652 400.811 280.562 399.899C280.022 394.398 273.501 398.184 277.177 401.971C277.853 402.668 279.211 402.76 280 403z"/>
<path style="fill:#262527; stroke:none;" d="M344.108 396.762C337.756 399.209 341.958 407.655 347.852 405.377C353.531 403.182 349.967 394.505 344.108 396.762z"/>
<path style="fill:#ddded8; stroke:none;" d="M490 398C487.715 405.729 489.371 414.122 489.91 422C490.657 432.905 490 444.069 490 455C490 496.326 489.027 537.76 489 579L495 579C494.628 575.264 493.252 571.755 493.043 568C492.108 551.215 494 533.888 494 517C494 495.615 493 474.343 493 453L493 418C493 411.463 493.862 404.299 492 398L490 398M413 401L413 579L417 579L417 401L413 401M425 401L425 580L429 580L428 470C431.341 470 435.785 469.284 438.791 471.028C441.409 472.547 442.847 475.637 445.103 477.61C447.19 479.435 450.231 480.528 451.397 483.213C452.949 486.788 452 492.179 452 496C452 504.751 452.626 513.3 453 522L455 522C456.097 513.317 456 504.751 456 496C456 492.167 455.032 486.658 457.028 483.209C458.343 480.936 460.897 479.669 462.661 477.791C464.624 475.702 465.759 472.553 468.263 471.028C471.974 468.767 475.382 470.874 477 466C469.083 465.994 467.48 464.067 462.475 458.285C460.433 455.926 457.898 453.999 456.742 450.996C455.351 447.382 456 442.798 456 439C456 433.505 458.316 423.096 452 421C452 427.078 451.304 432.962 451.039 439C450.871 442.847 451.623 447.256 450.106 450.907C448.911 453.786 446.282 455.292 444.089 457.325C438.039 462.93 435.656 465.628 427 466C429.125 457.077 428 447.134 428 438C428 425.619 429 413.388 429 401L425 401z"/>
<path style="fill:#262527; stroke:none;" d="M537.001 402.862C523.248 408.267 529.445 430.671 543.999 425.106C557.962 419.768 550.375 397.606 537.001 402.862z"/>
<path style="fill:#ddded8; stroke:none;" d="M436 406C436 424.202 434.718 442.941 437 461C441.281 457.741 440 450.887 440 446L440 406L436 406M478 406L478 579L482 579L482 447L482 417C482 412.46 482.987 407.655 478 406z"/>
<path style="fill:#262527; stroke:none;" d="M145 417C145.34 416.174 146.087 414.818 146.233 413.84C147.775 403.536 133.132 409.944 141.104 415.822C142.248 416.665 143.676 416.73 145 417z"/>
<path style="fill:#ddded8; stroke:none;" d="M539.043 408.851C531.731 410.971 534.462 421.393 541.956 419.547C549.408 417.712 545.889 406.866 539.043 408.851M367 415L368 464C372.227 461.26 371 455.572 371 451L371 415L367 415M466 415L467 460C470.901 457.031 470 451.497 470 447L470 415L466 415M290 426L289 505L292 505L292 426L290 426M356 426L357 578L360 578L360 426L356 426M345 431L345 578L349 578L349 431L345 431M252.094 447.859C242.148 452.213 248.508 468.421 258.957 464.257C269.879 459.904 262.765 443.187 252.094 447.859z"/>
<path style="fill:#262527; stroke:none;" d="M254.147 451.086C248.797 453.726 252.054 463.827 257.772 460.914C263.044 458.228 260.023 448.188 254.147 451.086M455 458C455.239 462.355 456.169 464.763 460 467C455.047 471.343 452.018 471.468 448 466C449.58 465.152 456.428 460.357 451.667 458.737C448.046 457.505 444.837 462.032 444.294 465.015C443.4 469.928 446.269 474.838 451.015 476.346C458.203 478.63 464.792 472.397 462.432 465.015C461.259 461.346 458.36 459.361 455 458z"/>
<path style="fill:#ddded8; stroke:none;" d="M374 471L380 476C382.097 474.596 385.694 472.693 386.079 469.87C386.533 466.538 381.875 464.025 379.044 464.737C376.007 465.5 374.899 468.386 374 471M392 476C388.973 486.242 391 499.338 391 510L391 579L394 579L394 476L392 476M368 478L367 579L372 579C370.194 556.118 371 532.979 371 510C371 499.924 372.862 487.683 370 478L368 478M440 578C437.405 545.123 440 511.974 440 479C433.323 481.216 436 494.16 436 500L436 559C436 564.557 433.638 575.763 440 578M467 480L467 579L470 579L470 480L467 480M378 483C379.589 495.575 379 508.328 379 521L379 579L384 579C379.992 547.286 383 514.854 383 483L378 483M452.607 526.047C449.313 528.52 453.139 533.739 456.667 531.049C460.266 528.305 455.844 523.617 452.607 526.047z"/>
</svg>
