<svg width="734" height="163" viewBox="0 0 734 163" fill="none" xmlns="http://www.w3.org/2000/svg">
<g clip-path="url(#clip0_3129_455)">
<path d="M721 0H0V155H721V0Z" fill="white"/>
<mask id="mask0_3129_455" style="mask-type:luminance" maskUnits="userSpaceOnUse" x="0" y="0" width="734" height="163">
<path d="M734 0H0V163H734V0Z" fill="white"/>
</mask>
<g mask="url(#mask0_3129_455)">
<path d="M0 81.5V163H367H734V81.5V0H367H0V81.5ZM648.525 16.1595C648.525 19.9535 649.746 19.6724 630.616 20.2345C628.445 20.375 627.36 19.3914 627.088 17.2836C626.546 13.7707 628.581 13.0681 640.792 12.7871C648.254 12.6466 648.525 12.7871 648.525 16.1595ZM668.605 18.9698C676.338 22.6233 676.338 22.7638 674.032 26.5578C672.539 29.0871 672.268 29.0871 666.027 25.8552C662.499 24.0285 658.701 22.4828 657.615 22.4828C654.766 22.4828 653.952 20.7966 654.902 17.0026C655.716 13.4897 657.073 13.7707 668.605 18.9698ZM620.576 19.1104C621.933 22.7638 621.526 23.6069 618.405 24.731C616.641 25.2931 612.978 27.2604 609.993 29.0871C604.838 32.4595 604.702 32.6 602.124 29.9302C599.682 27.2604 599.818 27.1198 608.094 22.0612C617.591 16.3 619.355 15.8785 620.576 19.1104ZM688.006 33.3026C696.011 42.1552 696.554 43.2793 694.654 45.6681C693.705 46.7922 692.484 47.7759 692.077 47.7759C691.534 47.7759 688.142 44.2629 684.614 40.0474C679.323 33.5836 678.373 31.8974 679.73 30.2112C682.037 27.2604 682.715 27.5414 688.006 33.3026ZM594.119 43.9819C591.27 48.0569 588.828 51.7104 588.828 52.2724C588.828 53.8181 585.843 53.6776 583.537 52.1319C581.909 51.0078 582.18 49.7431 585.301 44.6845C587.471 41.3121 590.456 37.2371 591.949 35.5509C594.526 32.6 594.933 32.4595 597.104 34.5672C599.275 36.675 599.139 37.2371 594.119 43.9819ZM661.143 48.4785L675.66 58.0336V80.7974V103.561L659.108 114.522C649.882 120.564 641.877 125.482 641.063 125.482C640.249 125.482 632.244 120.564 623.018 114.522L606.466 103.561V80.7974V58.0336L623.697 46.6517C639.163 36.394 641.334 35.4104 643.776 36.956C645.269 37.9397 653.002 43.1388 661.143 48.4785ZM703.202 58.5957C707.136 71.2422 707.136 72.6474 703.88 73.4905C700.217 74.6147 698.725 73.631 698.725 70.2586C698.725 68.7129 697.775 64.6379 696.554 60.9845C694.79 55.5043 694.79 54.2397 696.282 53.256C699.81 50.8672 701.302 52.1319 703.202 58.5957ZM583.944 60.1414C584.351 60.7035 583.944 65.7621 583.13 71.3828C581.637 80.5164 581.23 81.5 578.381 81.5C574.718 81.5 574.447 79.1112 576.753 67.0267C577.974 60.844 578.924 59.0172 580.823 59.0172C582.18 59.0172 583.537 59.5793 583.944 60.1414ZM378.261 67.7293C381.246 70.2586 387.487 77.8466 392.236 84.5914C396.984 91.3362 401.19 96.8164 401.597 96.8164C402.004 96.9569 402.14 89.65 401.868 80.7974L401.461 64.6379H406.21H411.094V90.6336V116.629H407.702C404.989 116.629 402.004 113.397 392.507 100.048L380.567 83.6078L379.889 99.7672L379.211 115.927H375.141L371.07 115.786L370.663 89.5095C370.528 74.3336 370.799 63.2328 371.613 63.2328C372.291 63.2328 375.276 65.3405 378.261 67.7293ZM128.348 68.0103C143.951 77.5655 137.031 101.172 118.444 101.172C107.997 101.172 108.675 92.4603 119.258 91.6172C126.72 91.0552 129.976 86.4181 127.263 80.6569C125.228 76.3009 120.072 74.3336 113.56 75.4578L109.218 76.1603L109.625 95.6922L110.032 115.224H105.284H100.535L100.128 90.9147C99.8566 77.706 99.9922 66.1836 100.264 65.481C101.213 63.2328 123.871 65.3405 128.348 68.0103ZM185.874 69.556V74.3336L174.071 74.7552L162.131 75.1767V80.6569V86.1371L172.036 85.856L181.804 85.575V90.6336V95.6922L172.036 95.4112L162.131 95.1302V100.61V106.091L174.071 106.512L185.874 106.934V111.009V115.224H168.644H151.549L152.363 101.453C152.905 94.006 153.312 82.6241 153.312 76.1603V64.6379H169.593H185.874V69.556ZM231.19 66.6052C242.993 71.6638 245.164 86.2776 235.26 94.8491L232.004 97.8L235.124 102.578C236.888 105.247 239.466 109.182 240.823 111.29L243.129 115.224H237.973C232.953 115.224 232.411 114.662 227.255 106.653C222.778 99.6267 221.285 98.2216 218.843 98.7836C216.265 99.3457 215.723 98.7836 215.723 95.4112C215.723 92.0388 216.265 91.4767 221.557 90.6336C230.24 89.0879 232.004 87.6828 232.004 82.2026C232.004 76.1603 229.29 74.4741 219.929 74.4741H213.009V94.8491V115.224H208.261H203.512V89.931V64.6379H215.044C221.828 64.6379 228.476 65.481 231.19 66.6052ZM286.002 66.7457C293.464 70.9612 293.6 70.9612 291.022 75.0362C288.851 78.4086 288.444 78.5491 285.867 76.5819C282.882 74.4741 274.741 73.7716 270.807 75.3172C268.229 76.3009 267.958 80.6569 270.4 82.4836C271.214 83.1862 275.691 84.8724 280.033 86.2776C290.344 89.5095 294.414 93.725 294.414 100.891C294.414 114.943 276.234 120.564 262.531 110.728C257.511 107.215 256.697 105.247 259.546 102.718C260.902 101.594 262.666 101.875 266.601 103.983C273.249 107.496 279.626 107.496 283.696 104.123C286.816 101.453 286.816 101.313 284.374 98.5026C283.017 96.9569 278.54 94.8491 274.199 93.8655C264.159 91.6172 259.139 86.6991 259.139 79.1112C259.139 74.8957 260.088 72.7879 262.938 69.9776C264.973 68.0103 267.55 66.0431 268.636 65.6216C272.706 64.0759 282.475 64.6379 286.002 66.7457ZM341.9 67.7293C349.227 71.6638 352.619 77.425 353.704 87.6828C355.061 100.891 348.006 111.992 336.202 115.365C329.147 117.332 323.448 115.224 317.207 108.479C310.424 101.172 309.338 98.3621 309.338 88.8069C309.338 78.8302 312.73 72.6474 320.871 67.8698C327.79 63.7948 334.302 63.7948 341.9 67.7293ZM452.746 68.4319C453.56 70.6802 457.902 81.781 462.515 93.3035C467.128 104.966 470.791 114.522 470.791 114.803C470.791 115.084 468.62 115.224 466.043 115.224C461.972 115.224 461.023 114.662 459.394 110.306C457.495 105.669 456.952 105.388 451.254 105.388C447.726 105.388 445.013 104.685 445.013 103.842C445.013 100.61 447.998 96.9569 450.576 96.9569C453.832 96.9569 453.56 94.8491 449.626 85.0129L447.455 79.5328L445.691 84.3103C444.742 86.9802 441.621 95.4112 438.908 102.859L433.888 116.489L429.682 115.646C427.24 115.224 425.204 114.662 425.069 114.662C424.255 114.1 436.058 82.0621 441.214 70.8207C443.385 65.7621 444.606 64.6379 447.591 64.6379C450.304 64.6379 451.661 65.6216 452.746 68.4319ZM706.865 84.3103C706.865 91.6172 704.016 102.578 702.116 102.578C696.961 102.578 696.418 101.313 698.318 93.725C699.267 89.7905 700.081 85.0129 700.081 83.3267C700.081 80.7974 700.895 80.0948 703.473 80.0948C706.322 80.0948 706.865 80.7974 706.865 84.3103ZM75.2995 85.7155C74.2141 87.6828 20.3512 87.6828 20.3512 85.7155C20.3512 84.8724 30.5268 84.3103 48.3002 84.3103C66.4806 84.3103 75.8421 84.7319 75.2995 85.7155ZM550.839 85.7155C550.839 86.5586 539.578 87.1207 519.634 87.1207C499.69 87.1207 488.429 86.5586 488.429 85.7155C488.429 84.8724 499.69 84.3103 519.634 84.3103C539.578 84.3103 550.839 84.8724 550.839 85.7155ZM583.401 92.0388C583.401 94.006 584.351 98.081 585.572 101.313C587.471 106.231 587.607 107.215 585.979 108.339C582.316 110.728 581.095 109.603 578.924 102.156C575.261 89.369 575.261 88.6664 578.517 88.2448C582.451 87.5422 583.401 88.2448 583.401 92.0388ZM700.081 110.868C700.081 112.133 693.433 122.391 690.177 126.044C687.599 128.995 687.192 129.135 684.886 127.028C682.579 124.779 682.715 124.498 686.514 119.58C688.685 116.629 691.127 112.695 692.077 110.728C693.433 107.496 693.976 107.215 696.825 108.479C698.589 109.322 700.081 110.447 700.081 110.868ZM597.511 121.688C603.617 128.854 603.888 129.697 601.853 131.805C599.953 133.913 599.411 133.772 595.476 129.978C588.15 122.672 585.572 118.175 587.471 115.927C588.421 114.803 589.642 113.819 590.049 113.819C590.592 113.819 593.984 117.332 597.511 121.688ZM676.61 137.988C667.791 144.03 663.449 145.576 661.957 143.187C659.786 139.534 660.736 138.269 667.519 134.897C671.318 133.07 675.117 130.681 675.931 129.557C677.288 128.011 677.966 128.152 679.866 130.822C682.172 134.053 682.172 134.194 676.61 137.988ZM624.511 139.112C627.36 139.112 628.174 140.798 627.36 144.311C626.681 146.981 626.139 147.122 621.661 145.857C616.234 144.311 606.466 139.534 606.466 138.409C606.466 137.988 607.144 136.442 608.094 135.037C609.586 132.508 609.858 132.508 616.099 135.74C619.626 137.566 623.425 139.112 624.511 139.112ZM655.037 144.171C655.58 147.824 652.46 148.948 641.47 148.948C634.008 148.948 633.601 148.808 633.601 145.435C633.601 142.344 634.143 142.063 641.47 141.501C653.545 140.658 654.63 140.939 655.037 144.171Z" fill="black"/>
<path d="M627.088 52.8345L613.25 62.1086V80.7974V99.4862L626.546 108.339C633.736 113.116 640.384 117.051 641.063 117.051C641.877 117.051 648.389 113.116 655.716 108.339L668.876 99.4862V80.7974V62.1086L657.751 54.6612C651.51 50.5862 645.269 46.5112 643.776 45.5276C641.334 43.8414 639.57 44.6845 627.088 52.8345ZM652.324 92.3198L641.063 103.983L629.937 92.4604L618.676 80.7974L629.802 69.275L641.063 57.6121L652.188 69.1345L663.449 80.7974L652.324 92.3198Z" fill="black"/>
<path d="M323.041 78.1276C319.243 81.3595 318.836 82.4836 318.836 89.7905C318.836 100.751 322.634 105.388 331.589 105.388C340.001 105.388 344.614 99.7672 344.614 89.65C344.614 83.8888 343.935 82.0621 340.679 78.5491C335.388 73.2095 328.875 73.069 323.041 78.1276Z" fill="black"/>
</g>
</g>
<defs>
<clipPath id="clip0_3129_455">
<rect width="734" height="163" fill="white"/>
</clipPath>
</defs>
</svg>
